{"title":"Farscape Season 2 DVD 1 (RETAIL) RHoek 2Lions-Team","uid":5903921,"size":4682051112,"categoryP":"video","categoryS":"tv_shows","magnet":"?xt=urn:btih:b7e483b40c464090f58882bb09afa0765c449922&amp;dn=Farscape+Season+2+DVD+1+%28RETAIL%29+RHoek+2Lions-Team&amp;tr=udp%3A%2F%2Ftracker.openbittorrent.com%3A80&amp;tr=udp%3A%2F%2Fopen.demonii.com%3A1337&amp;tr=udp%3A%2F%2Ftracker.coppersurfer.tk%3A6969&amp;tr=udp%3A%2F%2Fexodus.desync.com%3A6969","seeders":0,"leechers":1,"uploader":"RHoek-2lions","files":-1,"time":1287777285,"description":"SORRY, NO ENGLISH THIS TIME. This serie is in English, but the menu isn't.\n\n~~~~~~~~~~~~~~~~~~~~~~~~~~~~~~~~~~~~~~~~~~~~~~~~~~~~~~~~~\nVERHAALLIJN:\nÃ‚Â¯Ã‚Â¯Ã‚Â¯Ã‚Â¯Ã‚Â¯Ã‚Â¯Ã‚Â¯Ã‚Â¯Ã‚Â¯Ã‚Â¯Ã‚Â¯Ã‚Â¯\nIn de serie raakt de Amerikaanse astronaut John Crichton per abuis in een wormgat  verzeild tijdens een experimentele ruimtevlucht. Eenmaal uit het wormgat blijkt hij zich in een compleet nieuw heelal te bevinden. Voordat hij zich hierover ook maar kan verbazen belandt hij midden in een ruimtegevecht, waarin hij per ongeluk een schip ramt, dat vervolgens explodeert. Hij wordt aan boord genomen van een reusachtig levend ruimteschip dat bemand is door een drietal buitenaardse wezens, gevangenen, zo blijkt, die net bezig zijn te ontsnappen uit handen van de Peacekeepers, een mensachtig ras van brute militairen.\n\n~~~~~~~~~~~~~~~~~~~~~~~~~~~~~~~~~~~~~~~~~~~~~~~~~~~~~~~~~\n- Titel: Farscape Seizoen 2 DVD 1\n- Afleveringen: The Flax - Jeremiah Crichton - Durka Returns - Human Reaction\n- Grootte: 4,36 GB\n- Categorie : Beeld\n- Formaat : DVD5 \n- Bron : Retail\n- Genre : Science Fiction\n- Beeld : 4:3\n- Audio : 5.1DD Engels\n- Menu : Ja Custom (met dank aan kessy en machoclown)\n- Ondertitels : Custom Nederlands (met dank aan DaClownz)\n- Genre : Science-Fiction | Avontuur \n\nMet dank aan Pioen voor het verkrijgen van deze serie &amp; Angelspots voor het spotten!\n\nIMDb: http://www.imdb.com/title/tt0187636/ (8.7 uit 10 !!!)\nOfficiÃƒÂ«le website: http://www.farscape.com\n\n~~~~~~~~~~~~~~~~~~~~~~~~~~~~~~~~~~~~~~~~~~~~~~~~~~~~~~~~~\n\nVIDEO &amp; AUDIO INFORMATIE\nÃ‚Â¯Ã‚Â¯Ã‚Â¯Ã‚Â¯Ã‚Â¯Ã‚Â¯Ã‚Â¯Ã‚Â¯Ã‚Â¯Ã‚Â¯Ã‚Â¯Ã‚Â¯Ã‚Â¯Ã‚Â¯Ã‚Â¯Ã‚Â¯Ã‚Â¯Ã‚Â¯Ã‚Â¯Ã‚Â¯Ã‚Â¯Ã‚Â¯Ã‚Â¯Ã‚Â¯Ã‚Â¯Ã‚Â¯Ã‚Â¯Ã‚Â¯Ã‚Â¯Ã‚Â¯\nFormat                           : MPEG-PS\nFile size                        : 1 024 MiB\nDuration                         : 32mn 37s\nOverall bit rate                 : 4 387 Kbps\n\nVideo\nID                               : 224 (0xE0)\nFormat                           : MPEG Video\nFormat version                   : Version 2\nFormat profile                   : Main@Main\nFormat settings, BVOP            : Yes\nFormat settings, Matrix          : Default\nDuration                         : 32mn 37s\nBit rate mode                    : Variable\nBit rate                         : 3 852 Kbps\nNominal bit rate                 : 9 000 Kbps\nWidth                            : 720 pixels\nHeight                           : 576 pixels\nDisplay aspect ratio             : 4:3\nFrame rate                       : 25.000 fps\nStandard                         : PAL\nColor space                      : YUV\nChroma subsampling               : 4:2:0\nBit depth                        : 8 bits\nScan type                        : Interlaced\nScan order                       : Top Field First\nBits/(Pixel*Frame)               : 0.372\nStream size                      : 899 MiB (88%)\n\nAudio\nID                               : 128 (0x80)\nFormat                           : AC-3\nFormat/Info                      : Audio Coding 3\nMode extension                   : CM (complete main)\nDuration                         : 32mn 37s\nBit rate mode                    : Constant\nBit rate                         : 448 Kbps\nChannel(s)                       : 6 channels\nChannel positions                : Front: L C R, Side: L R, LFE\nSampling rate                    : 48.0 KHz\nBit depth                        : 16 bits\nVideo delay                      : -248ms\nStream size                      : 105 MiB (10%)\n\nText\nID                               : 32 (0x20)\nFormat                           : RLE\nFormat/Info                      : Run-length encoding\nDuration                         : 32mn 34s\nVideo delay                      : 1s 760ms\n\n*****************************************\n\nBrought to you by\n2Lions Team\n\nMeer zien??\nKom dan eens kijken op ons forum\n &lt;a href=&quot;\nhttp://www.2lions-site.nl&quot; rel=&quot;nofollow&quot; target=&quot;_NEW&quot;&gt;\nhttp://www.2lions-site.nl&lt;/a&gt;\n\n2Lions the site to be for all your Dutch MOVIES and more\n\n******************************************","torrent":{"xt":"urn:btih:b7e483b40c464090f58882bb09afa0765c449922","amp;dn":"Farscape+Season+2+DVD+1+%28RETAIL%29+RHoek+2Lions-Team","amp;tr":["udp%3A%2F%2Ftracker.openbittorrent.com%3A80","udp%3A%2F%2Fopen.demonii.com%3A1337","udp%3A%2F%2Ftracker.coppersurfer.tk%3A6969","udp%3A%2F%2Fexodus.desync.com%3A6969"],"infoHash":"b7e483b40c464090f58882bb09afa0765c449922","infoHashBuffer":{"type":"Buffer","data":[183,228,131,180,12,70,64,144,245,136,130,187,9,175,160,118,92,68,153,34]},"announce":[],"urlList":[]}}